<svg width="34" height="34" viewBox="0 0 34 34" fill="none" xmlns="http://www.w3.org/2000/svg">
<path d="M17 30.1722C15.3673 30.1722 13.8369 29.8628 12.4089 29.2439C10.9809 28.6251 9.73451 27.7832 8.66965 26.7183C7.60479 25.6537 6.76294 24.4074 6.14409 22.9794C5.52524 21.5514 5.21582 20.0209 5.21582 18.388H7.19774C7.19774 21.1125 8.15033 23.4273 10.0555 25.3325C11.9609 27.2377 14.2758 28.1903 17 28.1903C19.7243 28.1903 22.0391 27.2406 23.9445 25.3413C25.8497 23.4421 26.8023 21.1279 26.8023 18.399C26.8023 15.6747 25.8497 13.3628 23.9445 11.4633C22.0391 9.56404 19.7243 8.6144 17 8.6144H16.5955L18.8459 10.8648L17.4388 12.2581L12.7897 7.59547L17.4657 2.93286L18.8728 4.35484L16.5955 6.63249H17C18.6327 6.63249 20.1631 6.94191 21.5911 7.56076C23.0191 8.1796 24.2655 9.01969 25.3304 10.081C26.3952 11.1421 27.2371 12.3866 27.8559 13.8146C28.4748 15.2426 28.7842 16.7707 28.7842 18.399C28.7842 20.0246 28.4748 21.5532 27.8559 22.9847C27.2371 24.4163 26.3952 25.6627 25.3304 26.724C24.2655 27.7851 23.0191 28.6251 21.5911 29.2439C20.1631 29.8628 18.6327 30.1722 17 30.1722Z" fill="#1F1F1F"/>
</svg>
