<svg width="34" height="34" viewBox="0 0 34 34" fill="none" xmlns="http://www.w3.org/2000/svg">
<path d="M10.3446 27.0556C9.26104 27.0556 8.35013 26.6765 7.61181 25.9183C6.87349 25.1599 6.51613 24.2404 6.53974 23.1597H3.79247L4.44733 21.4611H6.95837C7.27901 20.851 7.74308 20.3561 8.3506 19.9765C8.95788 19.5968 9.62277 19.407 10.3453 19.407C11.0723 19.407 11.74 19.5968 12.3484 19.9765C12.9567 20.3561 13.423 20.851 13.7474 21.4611H20.897L23.8872 9.49314H10.1455L10.8524 7.79456H26.0887L24.9348 12.3222H27.3676L31.3736 17.9428L29.8262 23.1597H29.0226C29.0417 24.2404 28.68 25.1599 27.9374 25.9183C27.1949 26.6765 26.2818 27.0556 25.1983 27.0556C24.1148 27.0556 23.2047 26.6765 22.468 25.9183C21.7314 25.1599 21.3726 24.2404 21.3917 23.1597H14.1681C14.1873 24.2404 13.8255 25.1599 13.083 25.9183C12.3406 26.6765 11.4278 27.0556 10.3446 27.0556ZM23.3085 18.7341H29.3605L29.4926 18.211L26.463 14.0208H24.4758L23.3085 18.7341ZM23.8872 9.49314L20.8838 21.4611L21.2079 20.1656L23.8872 9.49314ZM5.64902 18.5761V14.8602H2.98462L7.29306 8.38283V12.1058H9.81472L5.64902 18.5761ZM10.3421 25.357C10.9371 25.357 11.4403 25.1517 11.8519 24.7411C12.2637 24.3305 12.4696 23.8278 12.4696 23.233C12.4696 22.638 12.2639 22.1348 11.8526 21.7232C11.4413 21.3114 10.94 21.1056 10.3488 21.1056C9.75168 21.1056 9.24723 21.3112 8.83545 21.7225C8.42391 22.1338 8.21814 22.6351 8.21814 23.2263C8.21814 23.8234 8.42344 24.3279 8.83404 24.7397C9.24463 25.1512 9.74731 25.357 10.3421 25.357ZM25.1969 25.357C25.7917 25.357 26.2949 25.1517 26.7067 24.7411C27.1182 24.3305 27.324 23.8278 27.324 23.233C27.324 22.638 27.1184 22.1348 26.7071 21.7232C26.296 21.3114 25.7947 21.1056 25.2033 21.1056C24.6061 21.1056 24.1018 21.3112 23.6903 21.7225C23.2785 22.1338 23.0726 22.6351 23.0726 23.2263C23.0726 23.8234 23.2779 24.3279 23.6885 24.7397C24.0991 25.1512 24.6019 25.357 25.1969 25.357Z" fill="#1F1F1F"/>
</svg>
