<svg fill="none" height="91" viewBox="0 0 205 91" width="205" xmlns="http://www.w3.org/2000/svg" xmlns:xlink="http://www.w3.org/1999/xlink"><linearGradient id="a" gradientUnits="userSpaceOnUse" x1="21.9807" x2="21.9807" y1="0" y2="82.639"><stop offset="0" stop-color="#e0c374"/><stop offset="1" stop-color="#b68d33"/></linearGradient><clipPath id="b"><path d="m0 0h60v91h-60z"/></clipPath><g clip-path="url(#b)"><path d="m36.0274 0c1.5825 5.43848-2.3737 11.0456-5.2867 15.4139-4.8119 7.2241-10.632 13.4013-14.3128 21.4689-9.10224 19.9624-3.499 42.3154 20.5725 45.4389-26.5098 3.5481-35.77614-23.3884-26.5918-44.4676 6.4237-14.7507 20.6603-22.6496 25.6188-37.8541z" fill="url(#a)"/><g fill="#b68d33"><path d="m39.1172 1.77339c2.5789 5.08367 6.7871 11.76111 6.2596 17.67651-.0469.5584-.6095 1.5472-.6505 1.9369-.4748 4.566 3.8155 4.124 6.834 2.9083-1.1898 2.1987-2.9306 3.2863-5.3688 3.711-.2696.983 6.0897 6.5668 6.8341 7.5847 3.1122 4.2578-4.4779 3.9204-2.9306 7.5848.1758.413 1.5122 1.2157 1.6294 1.7741.4396 2.0998-2.8485 2.4778-4.2317 2.4197 1.0257.5758 3.3232.8841 3.417 2.4197.1172 1.8729-2.4089 1.4948-2.9305 3.0653-.592 1.7973 1.8696 4.153.3282 6.7821-1.817 3.0886-11.0365.0465-14.2308.2443-8.1176.4886-9.4656 10.3709-8.2113 16.7051-4.2317-1.7973-8.1177-6.7646-9.7588-11.1387-5.1636-13.7561 1.4067-27.1807 8.9441-38.4183 5.2867-7.8873 13.0702-15.4197 14.0666-25.26132z"/><path d="m23.338 14.3672.1641.3257c-13.50399 14.4425-26.83211 40.3436-13.0937 58.6658 14.7172 19.6309 46.414 10.3825 48.9577-13.5584.3282-.3141.4806.8957.4865.9714 1.5121 12.1566-9.1258 24.7669-20.2501 28.4895-21.8853 7.3172-39.76166-9.5159-39.60341048-31.0721.11722148-15.4546 9.98730048-35.5217 23.33891048-43.8219z"/></g></g><g fill="#4d3422"><path d="m188.366 50.8753c.66 0 1.395-.39 2.205-1.17s1.635-1.845 2.475-3.195c.84-1.38 1.62-2.97 2.34-4.77s1.32-3.72 1.8-5.76l-.81 4.905c-1.02 2.85-2.07 5.145-3.15 6.885-1.05 1.71-2.13 2.955-3.24 3.735-1.11.75-2.25 1.125-3.42 1.125-1.5 0-2.625-.495-3.375-1.485-.75-1.02-1.125-2.355-1.125-4.005 0-1.5.24-3.105.72-4.815.51-1.71 1.2-3.405 2.07-5.085.9-1.68 1.92-3.195 3.06-4.545s2.37-2.43 3.69-3.24c1.32-.84 2.64-1.26 3.96-1.26 1.02 0 1.8.48 2.34 1.44.57.93.705 2.295.405 4.095l-.495.27c.21-1.41.12-2.535-.27-3.375-.36-.87-.96-1.305-1.8-1.305-.72 0-1.485.375-2.295 1.125-.81.72-1.605 1.725-2.385 3.015-.75 1.26-1.455 2.685-2.115 4.275-.63 1.59-1.125 3.24-1.485 4.95-.36 1.68-.54 3.33-.54 4.95 0 1.2.12 2.04.36 2.52.27.48.63.72 1.08.72zm10.755-22.05c.9-.03 1.77-.09 2.61-.18s1.62-.24 2.34-.45l-5.715 19.935c-.09.33-.18.705-.27 1.125-.06.39-.045.735.045 1.035.12.3.405.45.855.45.54 0 1.08-.285 1.62-.855.54-.6 1.08-1.725 1.62-3.375l.63-1.845h.855l-1.125 3.285c-.42 1.23-.93 2.175-1.53 2.835s-1.245 1.125-1.935 1.395c-.66.3-1.305.45-1.935.45-1.32 0-2.25-.42-2.79-1.26-.39-.66-.525-1.455-.405-2.385.15-.96.36-1.95.63-2.97z"/><path d="m176.235 20.8591c.12-.96.54-1.74 1.26-2.34s1.545-.9 2.475-.9c.87 0 1.545.285 2.025.855.51.54.705 1.215.585 2.025-.12.93-.555 1.71-1.305 2.34-.72.6-1.545.9-2.475.9-.87 0-1.545-.27-2.025-.81-.48-.57-.66-1.26-.54-2.07zm-1.485 11.79c.57-1.74.375-2.61-.585-2.61-.66 0-1.245.345-1.755 1.035-.51.66-1.035 1.725-1.575 3.195l-.72 1.89h-.855l1.17-3.33c.45-1.23.99-2.175 1.62-2.835s1.305-1.125 2.025-1.395c.75-.27 1.47-.405 2.16-.405.99 0 1.74.195 2.25.585s.825.9.945 1.53.12 1.32 0 2.07c-.12.72-.3 1.425-.54 2.115l-4.77 13.68c-.3.84-.39 1.485-.27 1.935s.435.675.945.675c.54 0 1.065-.285 1.575-.855.51-.6 1.08-1.725 1.71-3.375l.72-1.845h.855l-1.17 3.285c-.42 1.2-.945 2.13-1.575 2.79s-1.305 1.125-2.025 1.395c-.69.3-1.395.45-2.115.45-1.29 0-2.205-.285-2.745-.855-.51-.6-.735-1.395-.675-2.385.06-1.02.3-2.13.72-3.33z"/><path d="m147.487 51.9996h-4.725l8.91-30.015c.3-1.02.255-1.77-.135-2.25-.36-.48-1.275-.72-2.745-.72l.27-.945c1.83-.03 3.465-.195 4.905-.495 1.44-.33 2.775-.78 4.005-1.35zm1.215-6.615c1.17-3.24 2.265-5.97 3.285-8.19 1.05-2.22 2.07-3.99 3.06-5.31 1.02-1.32 2.055-2.265 3.105-2.835 1.08-.57 2.22-.855 3.42-.855 1.41 0 2.385.33 2.925.99.57.66.84 1.515.81 2.565s-.24 2.13-.63 3.24l-4.365 13.185c-.24.78-.33 1.41-.27 1.89s.375.72.945.72c.51 0 1.02-.285 1.53-.855.54-.57 1.11-1.695 1.71-3.375l.675-1.845h.855l-1.125 3.285c-.42 1.26-.945 2.22-1.575 2.88s-1.305 1.11-2.025 1.35c-.69.27-1.365.405-2.025.405-1.29 0-2.205-.285-2.745-.855s-.78-1.35-.72-2.34c.06-1.02.285-2.145.675-3.375l4.185-12.645c.18-.48.315-.99.405-1.53.12-.54.105-1.005-.045-1.395s-.54-.585-1.17-.585c-.69 0-1.44.36-2.25 1.08-.81.69-1.65 1.68-2.52 2.97s-1.725 2.82-2.565 4.59-1.65 3.735-2.43 5.895c-.78 2.13-1.5 4.395-2.16 6.795z"/><path d="m135.041 29.9506c-.72 0-1.53.495-2.43 1.485-.87.99-1.755 2.325-2.655 4.005s-1.755 3.585-2.565 5.715-1.485 4.335-2.025 6.615l.81-4.77c1.2-3.57 2.355-6.435 3.465-8.595s2.25-3.735 3.42-4.725 2.4-1.485 3.69-1.485c1.53 0 2.73.555 3.6 1.665.9 1.08 1.35 2.7 1.35 4.86 0 1.38-.195 2.88-.585 4.5-.36 1.59-.915 3.18-1.665 4.77-.72 1.56-1.62 3-2.7 4.32s-2.31 2.37-3.69 3.15-2.925 1.17-4.635 1.17c-.9 0-1.725-.24-2.475-.72-.72-.48-1.23-1.155-1.53-2.025l.36-.855c.39.9.825 1.545 1.305 1.935.51.36 1.095.54 1.755.54.96 0 1.89-.375 2.79-1.125.9-.78 1.725-1.815 2.475-3.105.78-1.29 1.455-2.715 2.025-4.275.6-1.56 1.05-3.135 1.35-4.725s.45-3.075.45-4.455-.165-2.37-.495-2.97-.795-.9-1.395-.9zm-7.065-7.83c.9-.06 1.77-.15 2.61-.27s1.635-.315 2.385-.585l-9.855 34.515c-.39 1.35-.24 2.25.45 2.7.69.48 1.74.72 3.15.72l-.27.945c-.63-.03-1.53-.075-2.7-.135-1.17-.03-2.4-.045-3.69-.045-1.02 0-2.055.015-3.105.045-1.05.06-1.83.105-2.34.135l.27-.945c1.08 0 1.86-.21 2.34-.63.48-.39.87-1.11 1.17-2.16zm-9.135 13.905c1.14-1.14 2.205-2.28 3.195-3.42 1.02-1.14 1.995-2.49 2.925-4.05.96-1.56 1.92-3.54 2.88-5.94l.135.72c-.63 2.07-1.395 3.885-2.295 5.445-.9 1.53-1.89 2.925-2.97 4.185-1.05 1.26-2.175 2.475-3.375 3.645z"/><path d="m109.529 29.0953c-.87 0-1.725.39-2.565 1.17s-1.635 1.845-2.385 3.195c-.72 1.32-1.365 2.805-1.935 4.455s-1.02 3.36-1.35 5.13c-.3 1.77-.45 3.45-.45 5.04 0 1.26.18 2.19.54 2.79.39.57.945.855 1.665.855.87 0 1.725-.39 2.565-1.17s1.635-1.83 2.385-3.15 1.395-2.79 1.935-4.41c.57-1.65 1.005-3.36 1.305-5.13.33-1.77.495-3.48.495-5.13 0-1.32-.18-2.25-.54-2.79-.36-.57-.915-.855-1.665-.855zm-13.2751 16.335c0-1.32.18-2.76.54-4.32s.915-3.105 1.665-4.635 1.6501-2.91 2.7001-4.14c1.08-1.26 2.34-2.265 3.78-3.015 1.47-.75 3.09-1.125 4.86-1.125 2.01 0 3.6.6 4.77 1.8 1.17 1.17 1.755 2.97 1.755 5.4 0 1.32-.18 2.76-.54 4.32s-.915 3.105-1.665 4.635-1.665 2.925-2.745 4.185c-1.05 1.23-2.31 2.22-3.78 2.97-1.44.75-3.045 1.125-4.815 1.125-2.01 0-3.6001-.6-4.7701-1.8s-1.755-3-1.755-5.4z"/><path d="m96.5947 19.8248c-.3.78-.705 1.92-1.215 3.42-.51 1.47-.99 3.39-1.44 5.76h-.9c.09-.42.15-.855.18-1.305.06-.45.09-.87.09-1.26 0-1.11-.24-2.115-.72-3.015-.45-.93-1.14-1.65-2.07-2.16-.93-.54-2.145-.81-3.645-.81-1.68 0-3.105.435-4.275 1.305-1.14.87-1.71 2.25-1.71 4.14 0 1.11.27 2.16.81 3.15.54.96 1.215 1.89 2.025 2.79.84.9 1.74 1.8 2.7 2.7s1.86 1.83 2.7 2.79c.84.93 1.53 1.92 2.07 2.97s.81 2.205.81 3.465c0 1.56-.375 2.91-1.125 4.05-.72 1.11-1.665 2.025-2.835 2.745-1.14.69-2.4 1.2-3.78 1.53-1.35.36-2.685.54-4.005.54-1.26 0-2.325-.105-3.195-.315-.84-.21-1.545-.48-2.115-.81s-1.08-.645-1.53-.945c-.33-.24-.645-.405-.945-.495-.27-.12-.495-.18-.675-.18-.39 0-.72.195-.99.585-.24.39-.525 1.005-.855 1.845h-.9c.27-.66.555-1.425.855-2.295s.63-1.98.99-3.33c.36-1.38.765-3.105 1.215-5.175h.9c-.15.6-.27 1.2-.36 1.8-.06.6-.075 1.2-.045 1.8.09 2.07.72 3.69 1.89 4.86 1.2 1.14 3.015 1.71 5.445 1.71 1.98 0 3.525-.435 4.635-1.305 1.14-.87 1.71-2.205 1.71-4.005 0-1.26-.255-2.385-.765-3.375-.48-1.02-1.11-1.965-1.89-2.835-.75-.9-1.56-1.77-2.43-2.61s-1.695-1.71-2.475-2.61c-.75-.9-1.365-1.89-1.845-2.97s-.72-2.28-.72-3.6c0-1.47.3-2.76.9-3.87s1.395-2.025 2.385-2.745c.99-.75 2.085-1.305 3.285-1.665 1.23-.39 2.46-.585 3.69-.585 1.44 0 2.64.18 3.6.54.99.33 1.89.795 2.7 1.395.33.24.615.435.855.585.27.12.48.18.63.18.42 0 .915-.795 1.485-2.385z"/><path d="m203.872 67.7969c-.035.3293-.061.65-.078.962-.009.3033-.013.5373-.013.702 0 .1646.004.3206.013.468.008.1473.017.2686.026.364h-.299c-.061-.5547-.156-.9924-.286-1.313-.122-.3207-.308-.546-.559-.676-.243-.1387-.585-.208-1.027-.208h-.897c-.278 0-.49.026-.637.078-.139.0433-.234.1386-.286.286-.052.1386-.078.3596-.078.663v6.552c0 .2946.026.5156.078.663.052.1473.147.247.286.299.147.0433.359.065.637.065h.845c.494 0 .884-.078 1.17-.234.294-.156.515-.4117.663-.767.156-.3554.273-.8407.351-1.456h.299c-.026.2513-.039.5806-.039.988 0 .1733.004.4246.013.754.017.3293.043.6673.078 1.014-.442-.0174-.941-.026-1.495-.026-.555-.0087-1.049-.013-1.482-.013-.2 0-.455 0-.767 0s-.65.0043-1.014.013c-.356 0-.72.0043-1.092.013-.364 0-.715.0043-1.053.013v-.26c.294-.0174.515-.052.663-.104.147-.052.242-.156.286-.312.052-.156.078-.39.078-.702v-6.448c0-.3207-.026-.5547-.078-.702-.044-.156-.143-.26-.299-.312-.148-.0607-.364-.0954-.65-.104v-.26c.338.0086.689.0173 1.053.026.372 0 .736.0043 1.092.013h1.014.767 1.352c.511-.0087.966-.0217 1.365-.039zm-2.158 4.446v.13.13h-2.353s0-.0434 0-.13c0-.0867 0-.13 0-.13zm.377-1.716c-.035.494-.052.871-.052 1.131.008.26.013.4983.013.715 0 .2166.004.455.013.715.008.26.03.637.065 1.131h-.299c-.044-.286-.1-.559-.169-.819-.07-.2687-.195-.4854-.377-.65-.174-.1647-.447-.247-.819-.247v-.26c.277 0 .494-.0564.65-.169.164-.1127.29-.26.377-.442.086-.182.147-.3684.182-.559.043-.1994.082-.3814.117-.546z"/><path d="m196.219 67.7969v.26c-.295.0086-.516.0433-.663.104-.148.052-.247.156-.299.312-.044.1473-.065.3813-.065.702v6.448c0 .312.021.546.065.702.052.156.151.26.299.312.147.052.368.0866.663.104v.26c-.217-.0174-.486-.026-.806-.026-.321-.0087-.646-.013-.975-.013-.364 0-.707.0043-1.027.013-.321 0-.577.0086-.767.026v-.26c.294-.0174.515-.052.663-.104.156-.052.26-.156.312-.312s.078-.39.078-.702v-7.111l.065.026-3.198 8.515h-.208l-3.354-8.424v6.656c0 .364.026.65.078.858.052.1993.164.3423.338.429.173.0866.437.143.793.169v.26c-.165-.0174-.377-.026-.637-.026-.252-.0087-.49-.013-.715-.013-.217 0-.434.0043-.65.013-.217 0-.395.0086-.533.026v-.26c.286-.026.502-.078.65-.156.147-.0867.247-.2297.299-.429.052-.1994.078-.4724.078-.819v-6.162c0-.3207-.026-.5547-.078-.702-.052-.156-.152-.26-.299-.312-.148-.0607-.364-.0954-.65-.104v-.26c.138.0086.316.0173.533.026.216.0086.433.013.65.013.251 0 .502-.0044.754-.013.26-.0087.481-.0174.663-.026l2.873 7.384-.247.169 2.821-7.514h.351.364c.329 0 .654-.0044.975-.013.32-.0087.589-.0174.806-.026z"/><path d="m184.284 67.7969c-.035.3293-.061.65-.078.962-.009.3033-.013.5373-.013.702 0 .1646.004.3206.013.468.008.1473.017.2686.026.364h-.299c-.061-.5547-.156-.9924-.286-1.313-.122-.3207-.308-.546-.559-.676-.243-.1387-.585-.208-1.027-.208h-.897c-.278 0-.49.026-.637.078-.139.0433-.234.1386-.286.286-.052.1386-.078.3596-.078.663v6.552c0 .2946.026.5156.078.663.052.1473.147.247.286.299.147.0433.359.065.637.065h.845c.494 0 .884-.078 1.17-.234.294-.156.515-.4117.663-.767.156-.3554.273-.8407.351-1.456h.299c-.026.2513-.039.5806-.039.988 0 .1733.004.4246.013.754.017.3293.043.6673.078 1.014-.442-.0174-.941-.026-1.495-.026-.555-.0087-1.049-.013-1.482-.013-.2 0-.455 0-.767 0s-.65.0043-1.014.013c-.356 0-.72.0043-1.092.013-.364 0-.715.0043-1.053.013v-.26c.294-.0174.515-.052.663-.104.147-.052.242-.156.286-.312.052-.156.078-.39.078-.702v-6.448c0-.3207-.026-.5547-.078-.702-.044-.156-.143-.26-.299-.312-.148-.0607-.364-.0954-.65-.104v-.26c.338.0086.689.0173 1.053.026.372 0 .736.0043 1.092.013h1.014.767 1.352c.511-.0087.966-.0217 1.365-.039zm-2.158 4.446v.13.13h-2.353s0-.0434 0-.13c0-.0867 0-.13 0-.13zm.377-1.716c-.035.494-.052.871-.052 1.131.008.26.013.4983.013.715 0 .2166.004.455.013.715.008.26.03.637.065 1.131h-.299c-.044-.286-.1-.559-.169-.819-.07-.2687-.195-.4854-.377-.65-.174-.1647-.447-.247-.819-.247v-.26c.277 0 .494-.0564.65-.169.164-.1127.29-.26.377-.442.086-.182.147-.3684.182-.559.043-.1994.082-.3814.117-.546z"/><path d="m173.071 77.0009v-.26c.295-.0174.516-.052.663-.104.148-.052.243-.156.286-.312.052-.156.078-.39.078-.702v-6.448c0-.3207-.026-.5547-.078-.702-.043-.156-.143-.26-.299-.312-.147-.0607-.364-.0954-.65-.104v-.26c.217.0086.486.0173.806.026.33.0086.655.013.975.013.364 0 .702-.0044 1.014-.013.312-.0087.564-.0174.754-.026v.26c-.286.0086-.502.0433-.65.104-.147.052-.247.156-.299.312-.052.1473-.078.3813-.078.702v6.448c0 .312.026.546.078.702s.152.26.299.312c.148.052.364.0866.65.104v.26c-.19-.0174-.442-.026-.754-.026-.312-.0087-.65-.013-1.014-.013-.32 0-.645.0043-.975.013-.32 0-.589.0086-.806.026zm-5.46 0v-.26c.295-.0174.516-.052.663-.104.148-.052.243-.156.286-.312.052-.156.078-.39.078-.702v-6.448c0-.3207-.026-.5547-.078-.702-.043-.156-.143-.26-.299-.312-.147-.0607-.364-.0954-.65-.104v-.26c.2.0086.455.0173.767.026.321.0086.663.013 1.027.013.33 0 .65-.0044.962-.013.321-.0087.585-.0174.793-.026v.26c-.286.0086-.502.0433-.65.104-.147.052-.247.156-.299.312-.052.1473-.078.3813-.078.702v6.448c0 .312.026.546.078.702s.152.26.299.312c.148.052.364.0866.65.104v.26c-.208-.0174-.472-.026-.793-.026-.312-.0087-.632-.013-.962-.013-.364 0-.706.0043-1.027.013-.312 0-.567.0086-.767.026zm1.937-4.498v-.26h5.135v.26z"/><path d="m166.742 67.7969c-.034.364-.06.7193-.078 1.066-.008.338-.013.598-.013.78 0 .1993.005.39.013.572.009.182.018.338.026.468h-.299c-.086-.65-.203-1.1614-.351-1.534-.138-.3727-.342-.6414-.611-.806-.268-.1647-.654-.247-1.157-.247h-.559v7.41c0 .3466.031.6066.091.78.07.1733.2.2903.39.351.2.052.486.0866.858.104v.26c-.242-.0174-.554-.026-.936-.026-.381-.0087-.771-.013-1.17-.013-.416 0-.81.0043-1.183.013-.364 0-.658.0086-.884.026v-.26c.373-.0174.655-.052.845-.104.191-.0607.321-.1777.39-.351.07-.1734.104-.4334.104-.78v-7.41h-.572c-.485 0-.866.0823-1.144.247-.277.1646-.485.4333-.624.806-.138.3726-.251.884-.338 1.534h-.299c.018-.13.026-.286.026-.468.009-.182.013-.3727.013-.572 0-.182-.008-.442-.026-.78-.008-.3467-.03-.702-.065-1.066.373.0086.78.0173 1.222.026.442.0086.889.013 1.339.013h1.222 1.209c.442 0 .889-.0044 1.339-.013.451-.0087.858-.0174 1.222-.026z"/><path d="m155.096 67.7969c-.035.3293-.061.65-.078.962-.009.3033-.013.5373-.013.702 0 .1646.004.3206.013.468.009.1473.017.2686.026.364h-.299c-.061-.5547-.156-.9924-.286-1.313-.121-.3207-.308-.546-.559-.676-.243-.1387-.585-.208-1.027-.208h-.897c-.277 0-.49.026-.637.078-.139.0433-.234.1386-.286.286-.052.1386-.078.3596-.078.663v6.552c0 .2946.026.5156.078.663.052.1473.147.247.286.299.147.0433.36.065.637.065h.845c.494 0 .884-.078 1.17-.234.295-.156.516-.4117.663-.767.156-.3554.273-.8407.351-1.456h.299c-.026.2513-.039.5806-.039.988 0 .1733.004.4246.013.754.017.3293.043.6673.078 1.014-.442-.0174-.94-.026-1.495-.026-.555-.0087-1.049-.013-1.482-.013-.199 0-.455 0-.767 0s-.65.0043-1.014.013c-.355 0-.719.0043-1.092.013-.364 0-.715.0043-1.053.013v-.26c.295-.0174.516-.052.663-.104s.243-.156.286-.312c.052-.156.078-.39.078-.702v-6.448c0-.3207-.026-.5547-.078-.702-.043-.156-.143-.26-.299-.312-.147-.0607-.364-.0954-.65-.104v-.26c.338.0086.689.0173 1.053.026.373 0 .737.0043 1.092.013h1.014.767 1.352c.511-.0087.966-.0217 1.365-.039zm-2.158 4.446v.13.13h-2.353s0-.0434 0-.13c0-.0867 0-.13 0-.13zm.377-1.716c-.035.494-.052.871-.052 1.131.009.26.013.4983.013.715 0 .2166.004.455.013.715s.03.637.065 1.131h-.299c-.043-.286-.1-.559-.169-.819-.069-.2687-.195-.4854-.377-.65-.173-.1647-.446-.247-.819-.247v-.26c.277 0 .494-.0564.65-.169.165-.1127.29-.26.377-.442s.147-.3684.182-.559c.043-.1994.082-.3814.117-.546z"/><path d="m144.181 67.6406c.459 0 .81.052 1.053.156.242.104.455.2167.637.338.104.0607.186.1084.247.143.069.026.134.039.195.039.086 0 .147-.0476.182-.143.043-.0953.078-.2383.104-.429h.299c-.009.156-.022.3424-.039.559-.009.208-.018.4854-.026.832v1.365h-.299c-.026-.4246-.122-.8363-.286-1.235-.156-.3986-.39-.7236-.702-.975-.304-.2513-.694-.377-1.17-.377-.442 0-.811.1344-1.105.403-.286.26-.429.6067-.429 1.04 0 .3814.095.702.286.962.19.2514.45.4897.78.715.338.2167.719.4594 1.144.728.433.2774.823.5547 1.17.832.346.2687.619.5677.819.897.199.3294.299.728.299 1.196 0 .5634-.135 1.0314-.403 1.404-.26.364-.611.637-1.053.819s-.928.273-1.456.273c-.486 0-.871-.052-1.157-.156s-.529-.2123-.728-.325c-.191-.1213-.338-.182-.442-.182-.087 0-.152.0477-.195.143-.035.0954-.065.2384-.091.429h-.299c.017-.1906.026-.4116.026-.663.008-.26.013-.598.013-1.014.008-.416.013-.9403.013-1.573h.299c.034.5374.13 1.04.286 1.508.164.468.411.845.741 1.131.338.2774.784.416 1.339.416.294 0 .567-.0563.819-.169.251-.1126.455-.2903.611-.533.156-.2426.234-.5546.234-.936 0-.3553-.087-.6673-.26-.936-.165-.2686-.399-.5156-.702-.741-.295-.234-.642-.4723-1.04-.715-.408-.26-.789-.52-1.144-.78-.356-.26-.642-.5633-.858-.91-.208-.3466-.312-.7583-.312-1.235 0-.5286.121-.962.364-1.3.251-.338.572-.5893.962-.754.398-.1646.823-.247 1.274-.247z"/><path d="m135.823 67.6133c.85 0 1.595.1863 2.236.559.65.3726 1.153.91 1.508 1.612.356.6933.533 1.5383.533 2.535 0 .9706-.182 1.82-.546 2.548s-.871 1.2956-1.521 1.703c-.65.4073-1.391.611-2.223.611-.858 0-1.607-.1863-2.249-.559-.641-.3727-1.139-.91-1.495-1.612-.355-.702-.533-1.547-.533-2.535 0-.9707.182-1.82.546-2.548.373-.728.88-1.2957 1.521-1.703.642-.4074 1.383-.611 2.223-.611zm-.052.234c-.537 0-1.005.195-1.404.585-.398.39-.706.9273-.923 1.612-.216.6846-.325 1.4776-.325 2.379 0 .9186.122 1.7203.364 2.405.243.676.572 1.2003.988 1.573.416.364.88.546 1.391.546.538 0 1.001-.195 1.391-.585.399-.39.707-.9274.923-1.612.226-.6934.338-1.4863.338-2.379 0-.9273-.125-1.729-.377-2.405-.242-.676-.572-1.196-.988-1.56-.407-.3727-.866-.559-1.378-.559z"/><path d="m123.545 67.7969c.199.0086.455.0173.767.026.321.0086.637.013.949.013.416 0 .81-.0044 1.183-.013.381-.0087.65-.013.806-.013 1.101 0 1.924.2383 2.47.715.546.4766.819 1.092.819 1.846 0 .312-.056.6413-.169.988-.104.338-.29.6543-.559.949-.269.286-.633.52-1.092.702s-1.044.273-1.755.273h-1.274v-.26h1.144c.581 0 1.023-.117 1.326-.351.312-.234.52-.5417.624-.923.113-.3814.169-.793.169-1.235 0-.8234-.147-1.4387-.442-1.846-.295-.4074-.806-.611-1.534-.611-.373 0-.62.0736-.741.221-.113.1473-.169.4463-.169.897v6.422c0 .3206.035.5633.104.728.069.156.199.26.39.312s.472.0823.845.091v.273c-.234-.0174-.537-.026-.91-.026-.373-.0087-.758-.013-1.157-.013-.347 0-.68.0043-1.001.013-.312 0-.576.0086-.793.026v-.26c.295-.0174.516-.052.663-.104s.243-.156.286-.312c.052-.156.078-.39.078-.702v-6.448c0-.3207-.026-.5547-.078-.702-.043-.156-.143-.26-.299-.312-.147-.0607-.364-.0954-.65-.104z"/><path d="m114.926 67.7969c.199.0086.455.0173.767.026.32.0086.637.013.949.013.416 0 .81-.0044 1.183-.013.381-.0087.65-.013.806-.013.736 0 1.347.0953 1.833.286.494.1906.858.4593 1.092.806.242.338.364.728.364 1.17 0 .2686-.057.5546-.169.858-.104.2946-.291.572-.559.832-.269.2513-.633.4593-1.092.624-.46.1646-1.045.247-1.755.247h-1.248v-.26h1.118c.58 0 1.022-.0954 1.326-.286.312-.1994.52-.4594.624-.78.112-.3294.169-.6934.169-1.092 0-.6847-.148-1.2134-.442-1.586-.295-.3814-.806-.572-1.534-.572-.373 0-.62.0736-.741.221-.113.1473-.169.4463-.169.897v6.448c0 .312.026.546.078.702s.151.26.299.312c.147.052.364.0866.65.104v.26c-.208-.0174-.473-.026-.793-.026-.312-.0087-.633-.013-.962-.013-.364 0-.707.0043-1.027.013-.312 0-.568.0086-.767.026v-.26c.294-.0174.515-.052.663-.104.147-.052.242-.156.286-.312.052-.156.078-.39.078-.702v-6.448c0-.3207-.026-.5547-.078-.702-.044-.156-.143-.26-.299-.312-.148-.0607-.364-.0954-.65-.104zm2.197 4.615c.442.0173.797.039 1.066.065.268.0173.494.0346.676.052.182.0173.351.039.507.065.65.0866 1.122.26 1.417.52.303.26.511.6586.624 1.196l.325 1.326c.078.3726.16.637.247.793.095.156.234.234.416.234.138-.0087.251-.0477.338-.117.095-.078.195-.182.299-.312l.182.143c-.2.2686-.408.4723-.624.611-.217.13-.507.195-.871.195-.373 0-.694-.0954-.962-.286-.26-.1994-.447-.572-.559-1.118l-.26-1.3c-.078-.3727-.165-.6934-.26-.962-.096-.2774-.23-.494-.403-.65-.165-.156-.408-.234-.728-.234h-1.404z"/><path d="m114.112 67.7969v.26c-.286.0173-.503.0693-.65.156-.148.0866-.247.2296-.299.429-.052.1906-.078.4636-.078.819v3.757c0 .5893-.039 1.1136-.117 1.573-.078.4593-.217.8536-.416 1.183-.217.364-.538.6586-.962.884-.416.2166-.915.325-1.495.325-.416 0-.819-.0477-1.209-.143-.39-.0954-.733-.2774-1.027-.546-.26-.234-.464-.4897-.611-.767-.148-.2774-.247-.611-.299-1.001-.052-.3987-.078-.8884-.078-1.469v-4.082c0-.3207-.026-.5547-.078-.702-.044-.156-.139-.26-.286-.312-.148-.0607-.369-.0954-.663-.104v-.26c.199.0086.455.0173.767.026.32.0086.663.013 1.027.013.329 0 .654-.0044.975-.013.329-.0087.598-.0174.806-.026v.26c-.295.0086-.52.0433-.676.104-.148.052-.247.156-.299.312-.052.1473-.078.3813-.078.702v4.498c0 .442.021.8493.065 1.222.052.3726.143.6976.273.975.138.2686.338.481.598.637.268.1473.615.221 1.04.221.641 0 1.135-.143 1.482-.429.355-.2947.602-.6934.741-1.196.147-.5114.221-1.092.221-1.742v-3.848c0-.3727-.035-.6587-.104-.858-.07-.1994-.191-.3424-.364-.429-.174-.0954-.421-.1517-.741-.169v-.26c.164.0086.377.0173.637.026.26.0086.498.013.715.013.225 0 .442-.0044.65-.013.216-.0087.394-.0174.533-.026z"/><path d="m98.1934 67.7969c.1993.0086.455.0173.767.026.3206.0086.637.013.949.013.4156 0 .8106-.0044 1.1826-.013.382-.0087.65-.013.806-.013 1.101 0 1.924.2383 2.47.715.546.4766.819 1.092.819 1.846 0 .312-.056.6413-.169.988-.104.338-.29.6543-.559.949-.268.286-.632.52-1.092.702-.459.182-1.044.273-1.755.273h-1.274v-.26h1.144c.581 0 1.023-.117 1.326-.351.312-.234.52-.5417.624-.923.113-.3814.169-.793.169-1.235 0-.8234-.147-1.4387-.442-1.846-.294-.4074-.806-.611-1.534-.611-.372 0-.619.0736-.741.221-.112.1473-.169.4463-.169.897v6.422c0 .3206.035.5633.104.728.07.156.2.26.39.312.191.052.473.0823.845.091v.273c-.234-.0174-.537-.026-.91-.026-.372-.0087-.758-.013-1.1566-.013-.3467 0-.6804.0043-1.001.013-.312 0-.5764.0086-.793.026v-.26c.2946-.0174.5156-.052.663-.104.1473-.052.2426-.156.286-.312.052-.156.078-.39.078-.702v-6.448c0-.3207-.026-.5547-.078-.702-.0434-.156-.143-.26-.299-.312-.1474-.0607-.364-.0954-.65-.104z"/><path d="m90.9129 67.7969v.26c-.2947.0086-.52.0433-.676.104-.1473.052-.247.156-.299.312-.052.1473-.078.3813-.078.702v6.5c0 .2946.0217.5156.065.663.052.1473.1473.247.286.299.1473.0433.3553.065.624.065h.845c.3727 0 .6847-.052.936-.156.26-.104.4767-.26.65-.468s.3077-.4767.403-.806c.0953-.3294.169-.715.221-1.157h.299c-.026.2773-.039.6413-.039 1.092 0 .1733.0043.429.013.767.0173.3293.0433.6716.078 1.027-.442-.0174-.9403-.026-1.495-.026-.5547-.0087-1.0487-.013-1.482-.013-.1993 0-.455 0-.767 0s-.65.0043-1.014.013c-.3553 0-.7193.0043-1.092.013-.364 0-.715.0043-1.053.013v-.26c.2947-.0174.5157-.052.663-.104s.2427-.156.286-.312c.052-.156.078-.39.078-.702v-6.448c0-.3207-.026-.5547-.078-.702-.0433-.156-.143-.26-.299-.312-.1473-.0607-.364-.0954-.65-.104v-.26c.1993.0086.455.0173.767.026.3207.0086.663.013 1.027.013.3293 0 .6543-.0044.975-.013.3293-.0087.598-.0174.806-.026z"/><path d="m83.1687 67.7969v.26c-.2946.0086-.52.0433-.6759.104-.1474.052-.247.156-.299.312-.052.1473-.078.3813-.078.702v6.5c0 .2946.0216.5156.0649.663.052.1473.1474.247.2861.299.1473.0433.3553.065.624.065h.845c.3726 0 .6846-.052.9359-.156.26-.104.4767-.26.6501-.468.1733-.208.3076-.4767.403-.806.0953-.3294.169-.715.221-1.157h.299c-.026.2773-.039.6413-.039 1.092 0 .1733.0043.429.0129.767.0174.3293.0434.6716.0781 1.027-.442-.0174-.9404-.026-1.4951-.026-.5546-.0087-1.0486-.013-1.4819-.013-.1994 0-.455 0-.767 0s-.65.0043-1.014.013c-.3554 0-.7194.0043-1.092.013-.364 0-.7151.0043-1.053.013v-.26c.2946-.0174.5156-.052.663-.104.1473-.052.2426-.156.286-.312.052-.156.078-.39.078-.702v-6.448c0-.3207-.026-.5547-.078-.702-.0434-.156-.1431-.26-.2991-.312-.1473-.0607-.3639-.0954-.6499-.104v-.26c.1993.0086.455.0173.767.026.3206.0086.6629.013 1.0269.013.3294 0 .6544-.0044.9751-.013.3293-.0087.5979-.0174.8059-.026z"/><path d="m75.3931 67.7441 3.172 8.164c.1214.3207.26.5374.416.65.1647.1127.3164.1734.455.182v.26c-.208-.0173-.455-.026-.741-.026-.2773-.0086-.559-.013-.845-.013-.364 0-.702.0044-1.014.013-.312 0-.5633.0087-.754.026v-.26c.442-.0173.7194-.091.832-.221.1214-.1386.0954-.429-.078-.871l-2.34-6.318.208-.234-2.158 5.642c-.156.39-.2513.715-.286.975-.026.26-.0043.4637.065.611.078.1474.208.2514.39.312.182.0607.4074.0954.676.104v.26c-.26-.0173-.5243-.026-.793-.026-.26-.0086-.507-.013-.741-.013-.208 0-.3943.0044-.559.013-.156 0-.299.0087-.429.026v-.26c.182-.0433.364-.1516.546-.325.182-.1733.3554-.468.52-.884l3.016-7.787h.221zm1.365 5.512v.26h-3.874l.13-.26z"/></g></svg>